[Header]
FileType HTR
DataType HTRS
FileVersion 1
NumSegments 28
NumFrames 4
DataFrameRate 24
EulerRotationOrder ZYX
CalibrationUnits mm
RotationUnits Degrees
GlobalAxisofGravity Y
BoneLengthAxis Y
ScaleFactor 1.0
[SegmentNames&Hierarchy]
waist	GLOBAL
chest	waist
head	chest
joint2	chest
right_shoulder1	joint2
right_elbow1	right_shoulder1
right_wrist1	right_elbow1
right_hand1	right_wrist1
right_finger3	right_hand1
right_finger4	right_hand1
right_finger5	right_hand1
joint3	chest
right_shoulder2	joint3
right_elbow2	right_shoulder2
right_wrist2	right_elbow2
right_hand2	right_wrist2
right_finger6	right_hand2
right_finger7	right_hand2
right_finger8	right_hand2
Center_pelvis	waist
left_pelvs	Center_pelvis
left_leg	left_pelvs
left_knee	left_leg
left_foot	left_knee
right_pelvis	Center_pelvis
right_leg	right_pelvis
right_knee	right_leg
right_foot	right_knee
[BasePosition]
waist	0	0	0	179.9999991	0	91.33221985	1
chest	0	0	0	-2.307808268e-010	-1.984983424e-008	1.332219854	1
head	0	0	0	180	-1.481061187e-024	90	1
joint2	0	0	0	4.615476202e-010	-1.707085745e-006	90	1
right_shoulder1	0	0	0	1.916575325e-008	-1.983803253e-008	-88.02506599	1
right_elbow1	0	0	0	-180	-1.948815659e-008	-12.92899665	1
right_wrist1	0	0	0	3.256551172e-010	1.942478841e-008	1.920938916	1
right_hand1	0	0	0	136.2194085	85.17676588	-133.4832578	1
right_finger3	0	0	0	154.4596717	79.84057755	147.6247455	1
right_finger4	0	0	0	154.4596717	79.84057755	147.6247455	1
right_finger5	0	0	0	154.4596717	79.84057755	147.6247455	1
joint3	0	0	0	-180	-1.89575832e-022	90	1
right_shoulder2	0	0	0	6.774897105e-015	-7.012540931e-015	-88.02506599	1
right_elbow2	0	0	0	-180	-6.888863384e-015	-12.92899665	1
right_wrist2	0	0	0	-1.240805042e-012	-7.401196581e-011	1.920938916	1
right_hand2	0	0	0	136.2194085	85.17676588	-133.4832578	1
right_finger6	0	0	0	154.4596717	79.84057755	147.6247455	1
right_finger7	0	0	0	154.4596717	79.84057755	147.6247455	1
right_finger8	0	0	0	154.4596717	79.84057755	147.6247455	1
Center_pelvis	0	0	0	-180	-8.537716493e-007	89.87586122	1
left_pelvs	0	0	0	0	0	-1.456358634	1
left_leg	0	0	0	179.9999991	0	88.69804733	1
left_knee	0	0	0	-180	-7.863991589e-009	-2.076172838	1
left_foot	0	0	0	179.9999985	-3.055580289e-010	-90.77422016	1
right_pelvis	0	0	0	0	0	-2.39554958	1
right_leg	0	0	0	0	0	-87.75885638	1
right_knee	0	0	0	179.9999991	3.702652968e-022	-2.076172838	1
right_foot	0	0	0	180	-7.405305937e-025	-90.77422016	1
[waist]
19	0	-3.152148962	0	-23.37685776	1.236049206e-017	-1.987846699e-016	1.0
20	0	-3.152148962	0	-23.37685776	1.236049206e-017	-1.987846699e-016	1.0
21	0	-3.152148962	0	-23.37685776	1.236049206e-017	-1.987846699e-016	1.0
22	0	-3.152148962	0	-23.37685776	1.236049206e-017	-1.987846699e-016	1.0
[chest]
19	25.32774734	-0.2627524436	1.052320719	30.47743225	10.93715954	8.508190155	1.0
20	25.44470596	-0.260086894	1.052862167	30.50211716	10.96025562	8.467682838	1.0
21	25.56127548	-0.2574301958	1.053401709	30.54121208	10.98230267	8.429017067	1.0
22	25.67722511	-0.2547876239	1.053938508	30.60117531	11.00267124	8.393295288	1.0
[head]
19	20.62318993	0.1433748305	1.492195129	-13.06693363	-5.741178513	1.330077171	1.0
20	20.62318993	0.1433748305	1.492195129	-13.06834984	-5.802293301	1.344331264	1.0
21	20.62318993	0.1433748305	1.492195129	-13.06977081	-5.863586426	1.3586272	1.0
22	20.62318993	0.1433748305	1.492195129	-13.07115269	-5.923212051	1.372533917	1.0
[joint2]
19	-1.657010078	17.01290512	0.01287616603	-10.35709095	-15.0103178	2.70999527	1.0
20	-1.657010078	17.01290512	0.01287616603	-10.35709095	-15.0103178	2.70999527	1.0
21	-1.657010078	17.01290512	0.01287616603	-10.35709095	-15.0103178	2.70999527	1.0
22	-1.657010078	17.01290512	0.01287616603	-10.35709095	-15.0103178	2.70999527	1.0
[right_shoulder1]
19	14.83124161	2.13866806	0.8568669558	0	-11.79370117	0	1.0
20	14.85023499	1.798207879	0.8772628903	0	-11.79370117	0	1.0
21	14.87166882	1.413972616	0.9002811909	0	-11.79370117	0	1.0
22	14.8913908	1.060456395	0.9214592576	0	-11.79370117	0	1.0
[right_elbow1]
19	-13.64346027	1.083028078	-0.5017899871	-21.61296463	24.09280586	-37.71225357	1.0
20	-13.64346027	1.083028078	-0.5017899871	-21.85522652	25.3422718	-38.26963425	1.0
21	-13.64346027	1.083028078	-0.5017899871	-22.12863922	26.75239182	-38.89868164	1.0
22	-13.64346027	1.083028078	-0.5017899871	-22.3801918	28.04977036	-39.47743607	1.0
[right_wrist1]
19	-11.64997101	-0.1284493357	0.1846901923	0	43.57972336	0	1.0
20	-11.45316887	-0.0829615593	0.3313785493	0	41.3424263	0	1.0
21	-11.28964424	-0.04516556114	0.4532625675	0	39.48344421	0	1.0
22	-11.18109798	-0.02007687651	0.5341682434	0	38.24946594	0	1.0
[right_hand1]
19	-7.870647907	-0.6475095749	0.1588415354	24.19773102	19.24819374	49.43399429	1.0
20	-7.870647907	-0.6475095749	0.1588415354	22.79310036	20.80967712	45.49586105	1.0
21	-7.870647907	-0.6475095749	0.1588415354	21.6259861	22.10711861	42.22364807	1.0
22	-7.870647907	-0.6475095749	0.1588415354	20.85126686	22.96835327	40.05157852	1.0
[right_finger3]
19	10.07661057	3.347557783	-1.489186764	-78.3791275	61.25396347	96.68160248	1.0
20	10.07661057	3.347557783	-1.489186764	-78.3791275	61.25396347	96.68160248	1.0
21	10.07661057	3.347557783	-1.489186764	-78.3791275	61.25396347	96.68160248	1.0
22	10.07661057	3.347557783	-1.489186764	-78.3791275	61.25396347	96.68160248	1.0
[right_finger4]
19	-1.201135993	3.376283169	11.27149582	-198.9912262	-2.457621098	60.21281433	1.0
20	-1.201135993	3.376283169	11.27149582	-198.9912262	-2.457621098	60.21281433	1.0
21	-1.201135993	3.376283169	11.27149582	-198.9912262	-2.457621098	60.21281433	1.0
22	-1.201135993	3.376283169	11.27149582	-198.9912262	-2.457621098	60.21281433	1.0
[right_finger5]
19	-6.853637218	4.493112087	-5.936321735	32.59261322	-12.32942677	103.8147736	1.0
20	-6.853637218	4.493112087	-5.936321735	32.59261322	-12.32942677	103.8147736	1.0
21	-6.853637218	4.493112087	-5.936321735	32.59261322	-12.32942677	103.8147736	1.0
22	-6.853637218	4.493112087	-5.936321735	32.59261322	-12.32942677	103.8147736	1.0
[joint3]
19	-1.657010078	-17.01289368	0.01287565939	-10.33717155	14.59749508	-2.632034063	1.0
20	-1.657010078	-17.01289368	0.01287565939	-10.33717155	14.59749508	-2.632034063	1.0
21	-1.657010078	-17.01289368	0.01287565939	-10.33717155	14.59749508	-2.632034063	1.0
22	-1.657010078	-17.01289368	0.01287565939	-10.33717155	14.59749508	-2.632034063	1.0
[right_shoulder2]
19	-15.00076771	-2.154530764	-0.8552926183	0	-34.23234558	0	1.0
20	-14.98172855	-1.810511827	-0.8760417104	0	-34.23234558	0	1.0
21	-14.96024036	-1.422260284	-0.8994586468	0	-34.23234558	0	1.0
22	-14.9404707	-1.065048814	-0.9210035205	0	-34.23234558	0	1.0
[right_elbow2]
19	13.02228546	-0.6429510117	0	11.46960258	42.22943497	14.32005119	1.0
20	13.02228546	-0.6429510117	0	11.29406929	41.21238327	14.05255508	1.0
21	13.02228546	-0.6429510117	0	11.09596634	40.06456375	13.75066662	1.0
22	13.02228546	-0.6429510117	0	10.91370106	39.0085144	13.47291374	1.0
[right_wrist2]
19	12.04781628	-0.3568031788	1.062030554	0	37.71637344	0	1.0
20	11.98077965	-0.3201881349	0.7766509056	0	39.67321014	0	1.0
21	11.92507839	-0.2897645533	0.5395276546	0	41.29915237	0	1.0
22	11.88810444	-0.2695696056	0.3821270466	0	42.37843704	0	1.0
[right_hand2]
19	8.313048363	0.02588133886	-0.2132965624	0	0	-1.874152422	1.0
20	8.313048363	0.02588133886	-0.2132965624	0	0	-7.929931641	1.0
21	8.313048363	0.02588133886	-0.2132965624	0	0	-12.96170616	1.0
22	8.313048363	0.02588133886	-0.2132965624	0	0	-16.30175972	1.0
[right_finger6]
19	-10.07661057	-3.347557783	1.489186764	-82.56325531	41.54194641	91.40802002	1.0
20	-10.07661057	-3.347557783	1.489186764	-82.56325531	41.54194641	91.40802002	1.0
21	-10.07661057	-3.347557783	1.489186764	-82.56325531	41.54194641	91.40802002	1.0
22	-10.07661057	-3.347557783	1.489186764	-82.56325531	41.54194641	91.40802002	1.0
[right_finger7]
19	1.201135993	-3.376283169	-11.27149582	-178.3618011	19.07616615	162.3161011	1.0
20	1.201135993	-3.376283169	-11.27149582	-178.3618011	19.07616615	162.3161011	1.0
21	1.201135993	-3.376283169	-11.27149582	-178.3618011	19.07616615	162.3161011	1.0
22	1.201135993	-3.376283169	-11.27149582	-178.3618011	19.07616615	162.3161011	1.0
[right_finger8]
19	6.853637218	-4.493112087	5.936321735	28.57172203	20.40917206	52.71258163	1.0
20	6.853637218	-4.493112087	5.936321735	28.57172203	20.40917206	52.71258163	1.0
21	6.853637218	-4.493112087	5.936321735	28.57172203	20.40917206	52.71258163	1.0
22	6.853637218	-4.493112087	5.936321735	28.57172203	20.40917206	52.71258163	1.0
[Center_pelvis]
19	-4.950357437	-0.3614075482	2.050072193	0	25.67634773	0	1.0
20	-5.055673599	-0.3638077378	2.049584866	0	25.67634773	0	1.0
21	-5.164823055	-0.3662953079	2.049079657	0	25.67634773	0	1.0
22	-5.277233601	-0.3688572347	2.048559427	0	25.67634773	0	1.0
[left_pelvs]
19	11.58621788	-0.6694945693	-2.122156382	0	6.368044376	0	1.0
20	11.5898037	-0.5231381655	-2.121184349	0	6.368044376	0	1.0
21	11.59327126	-0.3816100359	-2.120244265	0	6.368044376	0	1.0
22	11.59648991	-0.2502259314	-2.119371653	0	6.368044376	0	1.0
[left_leg]
19	8.450808053e-008	-5.682914734	0.3641465604	0	4.222771168	0	1.0
20	8.450808053e-008	-5.682914734	0.3641465604	0	5.58774662	0	1.0
21	8.450808053e-008	-5.682914734	0.3641465604	0	6.907692432	0	1.0
22	8.450808053e-008	-5.682914734	0.3641465604	0	8.133029938	0	1.0
[left_knee]
19	-10.69747543	0.03457061574	-6.811455844e-009	0	-8.163487434	0	1.0
20	-10.69747543	0.03457061574	-6.811455844e-009	0	-6.338085175	0	1.0
21	-10.69747543	0.03457061574	-6.811455844e-009	0	-4.572901726	0	1.0
22	-10.69747543	0.03457061574	-6.811455844e-009	0	-2.934239149	0	1.0
[left_foot]
19	-14.54718971	-0.01193539705	1.933258442e-009	-23.95181274	-1.798151851	-4.04049778	1.0
20	-14.54718971	-0.01193539705	1.933258442e-009	-23.95181274	-1.798151851	-4.04049778	1.0
21	-14.54718971	-0.01193539705	1.933258442e-009	-23.95181274	-1.798151851	-4.04049778	1.0
22	-14.54718971	-0.01193539705	1.933258442e-009	-23.95181274	-1.798151851	-4.04049778	1.0
[right_pelvis]
19	-11.44545174	-0.2094661444	3.535318375	0	-9.894831657	0	1.0
20	-11.44186783	-0.06310979277	3.536290646	0	-9.894831657	0	1.0
21	-11.43839931	0.07841837406	3.537230492	0	-9.894831657	0	1.0
22	-11.43518066	0.2098024487	3.538103104	0	-9.894831657	0	1.0
[right_leg]
19	0.09169664979	-5.593489647	0.06310817599	0	-17.81971359	0	1.0
20	0.09169664979	-5.593489647	0.06310817599	0	-17.00306511	0	1.0
21	0.09169664979	-5.593489647	0.06310817599	0	-16.21335602	0	1.0
22	0.09169664979	-5.593489647	0.06310817599	0	-15.48025036	0	1.0
[right_knee]
19	10.69750977	-0.03459574655	-4.718447855e-015	0	-19.98704338	0	1.0
20	10.69750977	-0.03459574655	-4.718447855e-015	0	-18.96674347	0	1.0
21	10.69750977	-0.03459574655	-4.718447855e-015	0	-17.98010254	0	1.0
22	10.69750977	-0.03459574655	-4.718447855e-015	0	-17.06417847	0	1.0
[right_foot]
19	14.54718685	0.01191107463	1.774880243e-010	0	0	0	1.0
20	14.54718685	0.01191107463	1.774880243e-010	0	0	0	1.0
21	14.54718685	0.01191107463	1.774880243e-010	0	0	0	1.0
22	14.54718685	0.01191107463	1.774880243e-010	0	0	0	1.0
[EndOfFile]
